<svg xmlns="http://www.w3.org/2000/svg" width="256" height="256" viewBox="0 0 256 256">
  <defs>
    <style>
      .cls-1 {
        fill: #34bf8f;
        fill-rule: evenodd;
      }
    </style>
  </defs>
  <path id="Set" class="cls-1" d="M182.933,256.178H73.065A73.328,73.328,0,0,1-.18,182.934V73.065A73.328,73.328,0,0,1,73.065-.18H182.933a73.328,73.328,0,0,1,73.246,73.245V182.934A73.328,73.328,0,0,1,182.933,256.178ZM73.065,36.442A36.66,36.66,0,0,0,36.443,73.065V182.934a36.661,36.661,0,0,0,36.623,36.623H182.933a36.661,36.661,0,0,0,36.623-36.623V73.065a36.66,36.66,0,0,0-36.623-36.623H73.065Zm73.246,146.492H109.688a36.659,36.659,0,0,1-36.623-36.623V109.688a36.66,36.66,0,0,1,36.623-36.623h36.623a36.659,36.659,0,0,1,36.622,36.623v36.623A36.659,36.659,0,0,1,146.311,182.934Zm-36.623-73.246v36.623h36.65l-0.027-36.623H109.688Z"/>
</svg>
