<svg id="Layer_1" data-name="Layer 1" xmlns="http://www.w3.org/2000/svg" viewBox="0 0 30 30"><title>Artboard 68</title><path d="M27,22.13A.57.57,0,0,0,27,22V19a3,3,0,0,0-3-3H16V11.91a6,6,0,1,0-2,0V16H6a3,3,0,0,0-3,3v3a.57.57,0,0,0,0,.13,4,4,0,1,0,2,0A.57.57,0,0,0,5,22V19a1,1,0,0,1,1-1h8v4a.57.57,0,0,0,0,.13,4,4,0,1,0,2,0A.57.57,0,0,0,16,22V18h8a1,1,0,0,1,1,1v3a.57.57,0,0,0,0,.13,4,4,0,1,0,2,0ZM6,26a2,2,0,1,1-2-2A2,2,0,0,1,6,26Zm11,0a2,2,0,1,1-2-2A2,2,0,0,1,17,26ZM15,10a4,4,0,1,1,4-4A4,4,0,0,1,15,10ZM26,28a2,2,0,1,1,2-2A2,2,0,0,1,26,28Z"/></svg>